PathFileType	4	(X/Y/Z)	C:\Data\4407\4407cd01.trc
DataRate	CameraRate	NumFrames	NumMarkers	Units	OrigDataRate	OrigDataStartFrame	OrigNumFrames
200.00	200.00	       11	33	mm	200.00	170	       451
Frame#	Time	Offset			RShoulder			RUpperArm			RElbow			RForearm			RWrist			LShoulder			LUpperArm			LElbow			LForearm			LWrist			LPSIS			RPSIS			RASIS			RThigh			RKnee			RShank			RAnkle			RHeel			RLat5			RToe			LASIS			LThigh			LKnee			LShank			LAnkle			LHeel			LLat5			LToe			RMed.Knee			LMed.Knee			RMed.Ankle			LMed.Ankle			
		X1	Y1	Z1	X2	Y2	Z2	X3	Y3	Z3	X4	Y4	Z4	X5	Y5	Z5	X6	Y6	Z6	X7	Y7	Z7	X8	Y8	Z8	X9	Y9	Z9	X10	Y10	Z10	X11	Y11	Z11	X12	Y12	Z12	X13	Y13	Z13	X14	Y14	Z14	X15	Y15	Z15	X16	Y16	Z16	X17	Y17	Z17	X18	Y18	Z18	X19	Y19	Z19	X20	Y20	Z20	X21	Y21	Z21	X22	Y22	Z22	X23	Y23	Z23	X24	Y24	Z24	X25	Y25	Z25	X26	Y26	Z26	X27	Y27	Z27	X28	Y28	Z28	X29	Y29	Z29	X30	Y30	Z30	X31	Y31	Z31	X32	Y32	Z32	X33	Y33	Z33	

170	0.845	328.76318	-306.06616	1395.93042	418.17508	-205.68689	1538.98572	538.81342	-273.20694	1405.02319	704.31531	-265.93005	1405.25317	846.47375	-252.81630	1325.14185	965.52307	-194.45729	1378.30347	130.78401	-213.03009	1542.18323	-6.36306	-281.50671	1389.57080	-137.79237	-285.05411	1399.15540	-279.23035	-275.27725	1329.60889	-421.32651	-205.05331	1348.34082	251.07536	-310.96033	1031.53381	300.57898	-310.44669	1033.49438	396.35855	-96.60909	1019.34344	369.72339	-101.60561	691.83575	452.11710	-201.54448	520.46765	420.04868	-173.37657	444.49182	462.77515	-247.05315	110.92452	417.80130	-303.26691	76.37733	515.93225	-107.90876	62.07714	410.56320	-92.12208	57.10554	142.62654	-102.61918	997.91663	147.10501	-110.99911	663.60638	98.69395	-204.71193	519.19275	131.86946	-177.53003	444.17285	93.16857	-266.73016	111.16391	145.77704	-318.87241	81.05653	41.53519	-121.93230	57.80326	150.40736	-105.12005	49.02606	341.90469	-196.79367	501.23822	202.17255	-192.18814	481.02237	376.47073	-207.52200	121.48123	178.90248	-222.19415	116.63172	
171	0.850	328.73645	-306.06073	1395.94482	418.14017	-205.64612	1539.00464	538.84558	-273.19507	1404.98425	704.30164	-265.87961	1405.22571	846.48248	-252.85692	1325.14465	965.52411	-194.38538	1378.30322	130.72864	-212.93513	1542.17151	-6.44815	-281.49872	1389.54688	-137.80962	-285.02603	1399.15808	-279.20612	-275.14282	1329.60596	-421.33301	-204.94669	1348.30591	251.04967	-310.92108	1031.56677	300.60208	-310.41037	1033.50354	396.32846	-96.63383	1019.32910	369.82053	-101.63577	691.82190	452.09216	-201.52287	520.51288	420.01892	-173.37357	444.40424	462.77701	-247.06808	110.92043	417.77600	-303.29553	76.36335	515.91821	-107.92810	62.05510	410.56219	-92.13074	57.04337	142.62917	-102.59878	997.92133	147.11703	-111.08514	663.58051	98.69540	-204.70174	519.19550	131.85127	-177.56468	444.14569	93.18257	-266.73032	111.14397	145.75015	-318.81332	81.03825	41.50945	-121.86000	57.77526	150.39610	-105.11768	49.03341	341.84430	-196.79683	501.20999	202.07578	-192.15382	481.04327	376.40463	-207.51569	121.40961	178.90485	-222.23814	116.60530	
172	0.855	328.75287	-306.02985	1395.94177	418.11035	-205.67572	1539.01379	538.84619	-273.18005	1404.99695	704.25482	-265.94189	1405.19556	846.46167	-252.72586	1325.10242	965.48114	-194.40640	1378.33386	130.74153	-212.90746	1542.19739	-6.45595	-281.43066	1389.58679	-137.82465	-284.95074	1399.16357	-279.17722	-275.11307	1329.64063	-421.37457	-204.88551	1348.33496	250.99361	-310.93973	1031.55994	300.56406	-310.43121	1033.51257	396.34476	-96.65105	1019.31073	369.77191	-101.55373	691.88776	452.14175	-201.53384	520.47003	420.03714	-173.34775	444.43420	462.86115	-247.26930	111.14981	417.84427	-303.30685	76.35588	515.97473	-108.01109	62.05635	410.52908	-92.13862	57.07113	142.63998	-102.64783	997.93079	147.07983	-111.14146	663.61884	98.70574	-204.67166	519.18701	131.91185	-177.52890	444.15540	93.15333	-266.88141	111.12531	145.79839	-318.80338	81.06591	41.52817	-121.92474	57.75317	150.39960	-105.18467	48.95749	341.82370	-196.81828	501.21475	202.08559	-192.14690	481.03366	376.43164	-207.47539	121.49717	178.86858	-222.27769	116.64147	
173	0.860	328.72021	-306.01413	1395.95764	418.13190	-205.66200	1539.04175	538.80573	-273.20117	1405.01123	704.26575	-265.82980	1405.18616	846.45404	-252.70012	1325.11035	965.47614	-194.36311	1378.32751	130.70546	-212.83295	1542.20007	-6.50554	-281.39148	1389.58691	-137.83357	-284.82263	1399.11523	-279.15479	-275.04123	1329.64563	-421.33768	-204.80113	1348.24402	251.05745	-310.87097	1031.55774	300.57037	-310.39453	1033.50623	396.35205	-96.59586	1019.36395	369.77524	-101.57124	691.87225	452.09595	-201.48161	520.47406	420.03561	-173.45107	444.38773	462.47388	-247.01013	110.95778	417.84824	-303.25751	76.27455	515.92621	-107.82542	62.00495	410.55151	-92.10159	57.12149	142.56465	-102.68034	997.90302	147.01469	-111.01680	663.54822	98.65092	-204.69519	519.17169	131.86531	-177.54913	444.16116	93.14957	-266.86948	111.12767	145.73654	-318.81180	81.12000	41.50157	-121.95153	57.83273	150.40569	-105.17434	48.98285	341.85806	-196.78656	501.21225	202.08540	-192.20917	481.04642	376.42871	-207.48567	121.45865	178.81508	-222.28586	116.61848	
174	0.865	328.70554	-305.99518	1395.96851	418.13962	-205.54507	1538.97119	538.82397	-273.19012	1405.02051	704.23883	-265.87552	1405.18555	846.45178	-252.65840	1325.10522	965.42761	-194.26820	1378.42175	130.68127	-212.81250	1542.20715	-6.57699	-281.34814	1389.54431	-137.85255	-284.80869	1399.11987	-279.19290	-274.97275	1329.69751	-421.40161	-204.73065	1348.24255	251.01207	-310.90341	1031.54797	300.54068	-310.41428	1033.51660	396.29593	-96.56952	1019.34393	369.75964	-101.57658	691.87659	451.99081	-201.44975	520.49011	419.95004	-173.40497	444.43753	462.77405	-247.11650	110.91310	417.79639	-303.25797	76.33276	515.90955	-107.86577	62.00202	410.53680	-92.11769	57.10705	142.60365	-102.60222	997.93164	147.00876	-111.13000	663.54083	98.63222	-204.71410	519.21490	131.87393	-177.51527	444.14804	93.14883	-266.82690	111.15370	145.71530	-318.86154	81.10139	41.53054	-121.96659	57.79101	150.39557	-105.19238	48.97166	341.92322	-196.76135	501.21649	202.08124	-192.14409	481.04254	376.41138	-207.43289	121.49085	178.81168	-222.27748	116.59345	
175	0.870	328.69638	-305.98755	1395.97388	418.11209	-205.53757	1538.96912	538.83716	-273.17963	1405.02905	704.23535	-265.87903	1405.13379	846.43994	-252.60443	1325.10461	965.41968	-194.16206	1378.43799	130.65521	-212.79234	1542.22656	-6.54541	-281.19849	1389.50232	-137.89188	-284.78506	1399.12585	-279.21964	-274.94373	1329.68457	-421.43716	-204.65924	1348.26807	250.98442	-310.91812	1031.54028	300.54498	-310.35870	1033.51123	396.26855	-96.62616	1019.31012	369.77591	-101.55830	691.87805	452.06274	-201.50189	520.52167	420.01550	-173.34512	444.42792	462.78052	-247.02267	110.92683	417.74124	-303.25073	76.45945	515.96796	-108.07471	62.01789	410.58643	-92.06549	57.05522	142.57352	-102.61531	997.89532	147.01381	-111.06323	663.54327	98.58698	-204.71878	519.18927	131.86932	-177.51872	444.21188	93.18704	-266.77902	111.15379	145.77367	-318.80246	81.01963	41.56601	-121.92362	57.79009	150.41385	-105.17138	49.03179	341.89444	-196.74290	501.23257	202.08667	-192.16519	481.02753	376.44916	-207.53786	121.46957	178.86923	-222.24374	116.66283	
176	0.875	328.69604	-305.99124	1395.96216	418.09882	-205.55457	1539.02014	538.79602	-273.13281	1404.99060	704.22339	-265.85791	1405.11780	846.43817	-252.56998	1325.10156	965.40906	-194.13780	1378.45923	130.64081	-212.72821	1542.21277	-6.59759	-281.17117	1389.47668	-137.94872	-284.75339	1399.15295	-279.27618	-274.94998	1329.65210	-421.43762	-204.56503	1348.22424	250.96172	-310.95193	1031.55249	300.51996	-310.40265	1033.53333	396.29498	-96.64075	1019.32629	369.72852	-101.58234	691.83282	452.09229	-201.52351	520.46283	420.08319	-173.31087	444.37860	462.88025	-247.19301	111.15186	417.74384	-303.23184	76.42535	515.95642	-107.99287	62.04428	410.50418	-92.15434	57.12001	142.57071	-102.67261	997.90765	146.99707	-111.11633	663.55688	98.59338	-204.73227	519.20337	131.79666	-177.55403	444.17844	93.16089	-266.76437	111.17046	145.78363	-318.80173	81.04603	41.49864	-121.92725	57.83332	150.46408	-105.12688	48.98360	341.90796	-196.77084	501.25342	202.06659	-192.18158	481.08063	376.46277	-207.51791	121.40691	178.93428	-222.25063	116.67471	
177	0.880	328.64774	-305.96689	1395.98865	418.12372	-205.52585	1539.01086	538.80475	-273.08942	1404.95264	704.20074	-265.82169	1405.14746	846.43555	-252.53908	1325.10474	965.39911	-194.10867	1378.46997	130.61311	-212.77121	1542.22351	-6.62969	-281.10233	1389.48743	-137.98978	-284.70740	1399.11194	-279.25046	-274.86288	1329.65234	-421.41830	-204.53671	1348.14807	250.96689	-310.90924	1031.56323	300.51614	-310.43637	1033.54346	396.20078	-96.58866	1019.30493	369.72873	-101.60745	691.81934	451.97635	-201.54005	520.47668	419.96191	-173.31250	444.40060	462.87634	-247.28578	111.13667	417.75281	-303.28806	76.40710	515.96710	-108.00986	62.03413	410.54462	-92.08173	57.13108	142.49429	-102.67830	997.89252	146.99249	-111.18083	663.55414	98.60442	-204.71198	519.24274	131.89249	-177.51881	444.16373	93.14643	-266.83740	111.13122	145.75420	-318.85309	81.07133	41.52062	-121.94645	57.79896	150.44717	-105.08757	48.98969	341.82849	-196.81380	501.21432	202.06587	-192.17113	481.03394	376.46313	-207.47528	121.58678	178.90021	-222.21367	116.61858	
178	0.885	328.65823	-305.96967	1395.97925	418.01462	-205.40527	1538.92517	538.81329	-273.02548	1404.92419	704.21423	-265.82230	1405.16248	846.42657	-252.50838	1325.11670	965.36444	-194.09753	1378.48218	130.59645	-212.72443	1542.18799	-6.56488	-281.00031	1389.44226	-138.04254	-284.66293	1399.11792	-279.27463	-274.84750	1329.65051	-421.45129	-204.48691	1348.17456	250.92572	-310.90292	1031.57825	300.47516	-310.42444	1033.54285	396.22357	-96.60987	1019.35590	369.76956	-101.56581	691.86243	451.97473	-201.55450	520.48730	419.98434	-173.38725	444.43747	462.84766	-247.34113	111.14495	417.79126	-303.24966	76.36749	515.96118	-108.00494	62.03437	410.54446	-92.09184	57.08818	142.52759	-102.69896	997.91663	147.00153	-111.04642	663.56055	98.60497	-204.69897	519.17584	131.88676	-177.51657	444.14539	93.14815	-266.83850	111.13425	145.76187	-318.82602	81.08515	41.54537	-121.93497	57.74018	150.45337	-105.18888	48.93556	341.82648	-196.76643	501.27109	202.02028	-192.11060	481.04446	376.44717	-207.48222	121.46835	178.92647	-222.33449	116.63328	
179	0.890	328.62354	-305.96127	1396.00073	418.07996	-205.46027	1538.92627	538.76764	-272.96408	1404.91907	704.20093	-265.79474	1405.19116	846.40649	-252.42982	1325.11707	965.31860	-194.00627	1378.50415	130.58052	-212.70836	1542.19055	-6.64495	-280.98752	1389.38269	-138.04935	-284.61899	1399.08521	-279.27756	-274.80667	1329.57764	-421.44534	-204.46266	1348.12268	250.91953	-310.93927	1031.62939	300.42130	-310.50595	1033.55969	396.24527	-96.68409	1019.34216	369.74261	-101.61658	691.88251	451.91699	-201.49532	520.50171	419.97400	-173.32373	444.44943	462.76111	-247.03052	110.93811	417.82639	-303.28372	76.38571	515.97583	-107.94218	62.01634	410.55200	-92.08468	57.08468	142.53728	-102.71362	997.89429	146.93964	-111.12989	663.61121	98.57805	-204.71779	519.19495	131.81680	-177.57056	444.18600	93.14023	-266.85022	111.12450	145.75496	-318.85422	81.05077	41.54340	-121.88344	57.77775	150.41789	-105.12281	48.97886	341.83804	-196.81773	501.27841	202.02469	-192.16292	481.04681	376.47379	-207.44061	121.48180	178.86435	-222.30804	116.62149	
180	0.895	328.59140	-305.96759	1395.99988	418.08142	-205.47824	1538.98572	538.73273	-272.90500	1404.85962	704.11469	-265.81128	1405.20447	846.41052	-252.40436	1325.12219	965.29913	-194.01225	1378.52222	130.54237	-212.69102	1542.19800	-6.65509	-280.93616	1389.41187	-138.07558	-284.60413	1399.09290	-279.31656	-274.79370	1329.59106	-421.41214	-204.45375	1348.05725	250.93578	-310.92392	1031.56812	300.42520	-310.48257	1033.57288	396.23849	-96.59797	1019.33966	369.76501	-101.52088	691.99255	451.98114	-201.42664	520.49805	419.98923	-173.41066	444.51974	462.75510	-247.09627	110.92946	417.83063	-303.27374	76.37754	515.95142	-107.95961	62.00628	410.57092	-92.15974	57.05442	142.43587	-102.69674	997.87177	146.99016	-111.06632	663.57190	98.55148	-204.77596	519.20154	131.84450	-177.52577	444.17462	93.16814	-266.81161	111.14906	145.78729	-318.79175	81.04629	41.48383	-121.96854	57.81597	150.39294	-105.19315	49.00658	341.82751	-196.74513	501.23746	201.98175	-192.11919	481.07944	376.39221	-207.44907	121.50175	178.69644	-222.17912	116.65493	
